<svg xmlns="http://www.w3.org/2000/svg" viewBox="0 0 599.62 645.43"><defs><style>.cls-1{fill:#df9998;}</style></defs><g id="Layer_2" data-name="Layer 2"><g id="Layer_1-2" data-name="Layer 1"><path class="cls-1" d="M353.11,299.81l220.7,199V645.43H405.58L222.36,479.7V645.43H105.77L0,550.49V0H116.59L222.36,94.94v25L354.78,0H513.84l85.78,77.45ZM99.94,363.11,478,22.49H363.94l-264,238.18V22.49H22.49V533.83H99.94Zm15.82,259.83h65L106.6,556.32H40.81Zm6.66-586.3V209.87l77.45-70V105.77Zm77.45,423.07-77.45-69.95v149.9l77.45,69.12ZM414.74,622.94H528.83l-284-256.5,321.46-289L508,25.82,130.75,366.44Zm-79.12-307.3L279,366.44,551.32,612.12V508.85Z"/></g></g></svg>